<svg width="117" height="33" viewBox="0 0 117 33" fill="none" xmlns="http://www.w3.org/2000/svg">
<path d="M15.079 18.0967H9.81334V24.4838C9.81334 25.0095 9.83994 25.4958 9.89313 25.9426C9.94632 26.3631 10.066 26.7311 10.2522 27.0465C10.4383 27.3619 10.7176 27.6116 11.0899 27.7956C11.4888 27.9533 12.0074 28.0322 12.6457 28.0322C12.9648 28.0322 13.377 28.0059 13.8823 27.9533C14.4142 27.8745 14.8131 27.7168 15.079 27.4802V32.4085C14.4142 32.6451 13.7227 32.8028 13.0047 32.8817C12.2866 32.9605 11.5819 32.9999 10.8904 32.9999C9.87983 32.9999 8.94902 32.8948 8.098 32.6845C7.24698 32.4743 6.50234 32.1457 5.86407 31.6989C5.22581 31.2257 4.72051 30.6212 4.34819 29.8852C4.00246 29.1493 3.8296 28.2556 3.8296 27.2042V18.0967H0V13.3655H3.8296V7.68811H9.81334V13.3655H15.079V18.0967Z" fill="#0C0507"/>
<path d="M18.6185 13.3655H24.6022V16.4408H24.682C25.3203 15.258 26.0782 14.3775 26.9558 13.7992C27.8335 13.1947 28.9371 12.8924 30.2668 12.8924C30.6126 12.8924 30.9583 12.9056 31.304 12.9318C31.6498 12.9581 31.9689 13.0107 32.2614 13.0895V18.491C31.8359 18.3596 31.4104 18.2676 30.9849 18.215C30.586 18.1361 30.1605 18.0967 29.7084 18.0967C28.5648 18.0967 27.6606 18.2544 26.9957 18.5698C26.3309 18.8852 25.8123 19.3321 25.44 19.9103C25.0942 20.4623 24.8682 21.1326 24.7618 21.9211C24.6554 22.7096 24.6022 23.577 24.6022 24.5232V32.5268H18.6185V13.3655Z" fill="#0C0507"/>
<path d="M47.529 30.1218H47.4492C46.7844 31.1469 45.8935 31.8829 44.7765 32.3297C43.6861 32.7765 42.5293 32.9999 41.3059 32.9999C40.4017 32.9999 39.5241 32.8685 38.6731 32.6057C37.8486 32.3691 37.1173 32.0011 36.479 31.5017C35.8408 31.0023 35.3355 30.3846 34.9632 29.6487C34.5908 28.9127 34.4047 28.0585 34.4047 27.086C34.4047 25.982 34.6041 25.0489 35.003 24.2867C35.4286 23.5244 35.987 22.8936 36.6785 22.3942C37.3965 21.8948 38.2077 21.5137 39.1119 21.2508C40.0161 20.9617 40.9469 20.7514 41.9043 20.62C42.8883 20.4886 43.859 20.4097 44.8164 20.3835C45.8004 20.3572 46.7046 20.344 47.529 20.344C47.529 19.2927 47.1434 18.4647 46.3722 17.8602C45.6275 17.2293 44.7366 16.9139 43.6994 16.9139C42.7154 16.9139 41.8112 17.1242 40.9868 17.5447C40.189 17.939 39.4709 18.491 38.8326 19.2007L35.6413 15.9677C36.7583 14.9426 38.0614 14.1803 39.5507 13.6809C41.04 13.1553 42.5825 12.8924 44.1781 12.8924C45.9334 12.8924 47.3695 13.1158 48.4864 13.5627C49.63 13.9832 50.5342 14.614 51.1991 15.4551C51.8905 16.2962 52.3692 17.3345 52.6352 18.5698C52.9011 19.7789 53.0341 21.1851 53.0341 22.7885V32.5268H47.529V30.1218ZM46.053 24.129C45.6009 24.129 45.0291 24.1553 44.3377 24.2078C43.6728 24.2341 43.0213 24.3392 42.383 24.5232C41.7713 24.7072 41.2394 24.9832 40.7873 25.3512C40.3618 25.7192 40.1491 26.2317 40.1491 26.8888C40.1491 27.5985 40.4549 28.1242 41.0666 28.4659C41.6782 28.8076 42.3165 28.9784 42.9814 28.9784C43.5665 28.9784 44.1249 28.8996 44.6568 28.7419C45.2153 28.5842 45.7073 28.3608 46.1328 28.0716C46.5583 27.7825 46.8908 27.4145 47.1301 26.9677C47.396 26.5208 47.529 25.9952 47.529 25.3906V24.129H46.053Z" fill="#0C0507"/>
<path d="M55.2524 13.3655H61.7149L66.6215 26.3763H66.7013L71.249 13.3655H77.2726L69.6134 32.5268H63.2706L55.2524 13.3655Z" fill="#0C0507"/>
<path d="M98.302 29.215C97.3446 30.4241 96.1346 31.3572 94.6719 32.0143C93.2092 32.6714 91.6933 32.9999 90.1243 32.9999C88.635 32.9999 87.2255 32.7634 85.8957 32.2903C84.5926 31.8171 83.4491 31.1469 82.4651 30.2795C81.5077 29.3858 80.7497 28.3213 80.1912 27.086C79.6328 25.8506 79.3535 24.4707 79.3535 22.9462C79.3535 21.4217 79.6328 20.0418 80.1912 18.8064C80.7497 17.571 81.5077 16.5197 82.4651 15.6523C83.4491 14.7586 84.5926 14.0752 85.8957 13.6021C87.2255 13.129 88.635 12.8924 90.1243 12.8924C91.5072 12.8924 92.7571 13.129 93.8741 13.6021C95.0176 14.0752 95.975 14.7586 96.7463 15.6523C97.5441 16.5197 98.1558 17.571 98.5813 18.8064C99.0068 20.0418 99.2195 21.4217 99.2195 22.9462V24.7992H85.3373C85.5766 25.9295 86.0952 26.8363 86.893 27.5197C87.6909 28.1768 88.6749 28.5053 89.845 28.5053C90.829 28.5053 91.6534 28.295 92.3183 27.8745C93.0098 27.4277 93.6081 26.8625 94.1134 26.1792L98.302 29.215ZM93.2358 20.7777C93.2624 19.7789 92.93 18.9247 92.2385 18.215C91.5471 17.5053 90.6561 17.1505 89.5658 17.1505C88.9009 17.1505 88.3158 17.2556 87.8105 17.4659C87.3052 17.6762 86.8664 17.9522 86.4941 18.2938C86.1484 18.6093 85.8691 18.9904 85.6564 19.4372C85.4702 19.8578 85.3639 20.3046 85.3373 20.7777H93.2358Z" fill="#0C0507"/>
<path d="M103.357 13.3655H109.341V16.4408H109.421C110.059 15.258 110.817 14.3775 111.694 13.7992C112.572 13.1947 113.676 12.8924 115.005 12.8924C115.351 12.8924 115.697 12.9056 116.043 12.9318C116.388 12.9581 116.707 13.0107 117 13.0895V18.491C116.574 18.3596 116.149 18.2676 115.723 18.215C115.325 18.1361 114.899 18.0967 114.447 18.0967C113.303 18.0967 112.399 18.2544 111.734 18.5698C111.069 18.8852 110.551 19.3321 110.179 19.9103C109.833 20.4623 109.607 21.1326 109.5 21.9211C109.394 22.7096 109.341 23.577 109.341 24.5232V32.5268H103.357V13.3655Z" fill="#0C0507"/>
<ellipse cx="66.6025" cy="6.40681" rx="6.48239" ry="6.40681" fill="#FCD240"/>
</svg>
